<svg width="81.5375px" height="121.39999999999999px" xmlns="http://www.w3.org/2000/svg" viewBox="209.23125 14.300000000000004 81.5375 121.39999999999999" style="background:#596886" preserveAspectRatio="xMidYMid"><defs><filter id="editing-hover" x="-100%" y="-100%" width="300%" height="300%"><feFlood flood-color="#052b4a" result="flood"></feFlood><feComposite operator="in" in2="SourceAlpha" in="flood" result="shadow"></feComposite><feOffset dx="-4" dy="-4" in="SourceGraphic" result="offset-1"></feOffset><feOffset dx="4" dy="4" in="shadow" result="offset-2"></feOffset><feMerge><feMergeNode in="offset-2"></feMergeNode><feMergeNode in="offset-1"></feMergeNode></feMerge></filter></defs><g filter="url(#editing-hover)"><g transform="translate(227.4100123345852, 96.76000213623047)"><path d="M24.96-4.80L24.96-4.80L24.96-4.80Q24.96-9.28 26.75-18.24L26.75-18.24L17.28-18.24L13.76 0L0.38 0L8.51-42.24L22.02-42.24L18.30-23.36L27.78-23.36L31.30-42.24L44.80-42.24L44.80-42.24Q43.90-37.50 42.75-32.19L42.75-32.19L40.58-21.76L40.58-21.76Q38.14-9.60 38.14-4.29L38.14-4.29L38.14-4.29Q38.14-2.11 38.85-0.90L38.85-0.90L38.85-0.90Q35.65 1.28 31.90 1.28L31.90 1.28L31.90 1.28Q28.16 1.28 26.56-0.51L26.56-0.51L26.56-0.51Q24.96-2.30 24.96-4.80Z" fill="#ffd5af"></path></g></g><style>text {
  font-size: 64px;
  font-family: Arial Black;
  dominant-baseline: central;
  text-anchor: middle;
}</style></svg>