<?xml version="1.0" encoding="UTF-8"?>
<svg version="1.1" xmlns="http://www.w3.org/2000/svg" width="215" height="72">
<path d="M0 0 C1.20390381 -0.00467285 2.40780762 -0.0093457 3.64819336 -0.01416016 C5.32667358 -0.01101807 5.32667358 -0.01101807 7.0390625 -0.0078125 C8.04404785 -0.00668457 9.0490332 -0.00555664 10.08447266 -0.00439453 C12.375 0.125 12.375 0.125 13.375 1.125 C13.53120555 2.53827947 13.62556173 3.9585459 13.69140625 5.37890625 C13.73330078 6.23291016 13.77519531 7.08691406 13.81835938 7.96679688 C13.85767578 8.86462891 13.89699219 9.76246094 13.9375 10.6875 C13.98068359 11.58919922 14.02386719 12.49089844 14.06835938 13.41992188 C14.17478142 15.65478485 14.27679988 17.88976308 14.375 20.125 C15.138125 19.485625 15.90125 18.84625 16.6875 18.1875 C22.74938889 13.53535271 31.07328543 14.59927655 38.375 15.125 C43.38389317 16.58328535 46.49269665 19.85492096 49.375 24.125 C50.05509033 25.45153661 50.72429329 26.78380538 51.375 28.125 C52.67695312 27.980625 53.97890625 27.83625 55.3203125 27.6875 C57.04685676 27.49983215 58.77342029 27.31234149 60.5 27.125 C61.3559375 27.02960937 62.211875 26.93421875 63.09375 26.8359375 C67.53210334 26.35796099 71.90416234 25.89645878 76.375 26.125 C77.375 27.125 77.375 27.125 77.5078125 30.25 C77.50523438 31.52875 77.50265625 32.8075 77.5 34.125 C77.50386719 36.043125 77.50386719 36.043125 77.5078125 38 C77.375 41.125 77.375 41.125 76.375 42.125 C71.05970572 43.1052231 65.89463306 43.27790327 60.5 43.25 C59.34371094 43.25580078 59.34371094 43.25580078 58.1640625 43.26171875 C52.50174989 43.25174989 52.50174989 43.25174989 51.375 42.125 C51.09527344 42.71667969 50.81554687 43.30835938 50.52734375 43.91796875 C45.32075312 54.18047697 45.32075312 54.18047697 39.375 56.125 C36.53927974 56.52289164 33.73645522 56.64307698 30.875 56.6875 C29.78880371 56.70985718 29.78880371 56.70985718 28.68066406 56.73266602 C23.18744105 56.6272191 19.91301124 55.2185816 15.375 52.125 C11.81655524 48.28562539 10.23799832 45.34622381 10.27734375 40.11328125 C10.28056641 39.35595703 10.28378906 38.59863281 10.28710938 37.81835938 C10.29967773 36.63983398 10.29967773 36.63983398 10.3125 35.4375 C10.31701172 34.64021484 10.32152344 33.84292969 10.32617188 33.02148438 C10.3379415 31.05595743 10.35587652 29.09046915 10.375 27.125 C9.30958984 27.03412109 9.30958984 27.03412109 8.22265625 26.94140625 C7.30355469 26.85761719 6.38445313 26.77382813 5.4375 26.6875 C4.06271484 26.56568359 4.06271484 26.56568359 2.66015625 26.44140625 C0.375 26.125 0.375 26.125 -0.625 25.125 C-0.955 30.075 -1.285 35.025 -1.625 40.125 C0.685 40.125 2.995 40.125 5.375 40.125 C6.375 41.125 6.375 41.125 6.5078125 44.03125 C6.50523438 45.2171875 6.50265625 46.403125 6.5 47.625 C6.50386719 49.40390625 6.50386719 49.40390625 6.5078125 51.21875 C6.375 54.125 6.375 54.125 5.375 55.125 C3.01101532 55.2257812 0.67688689 55.26473215 -1.6875 55.2578125 C-2.39398682 55.25876923 -3.10047363 55.25972595 -3.82836914 55.26071167 C-5.32470793 55.26139333 -6.82104967 55.25954005 -8.31738281 55.25537109 C-10.61530157 55.25002257 -12.91302486 55.25531651 -15.2109375 55.26171875 C-16.66145877 55.26105797 -18.11197991 55.2597768 -19.5625 55.2578125 C-20.5999939 55.26084885 -20.5999939 55.26084885 -21.65844727 55.26394653 C-26.51004776 55.23995224 -26.51004776 55.23995224 -27.625 54.125 C-27.77635944 52.3377943 -27.84675778 50.54338124 -27.875 48.75 C-27.91367187 47.28433594 -27.91367187 47.28433594 -27.953125 45.7890625 C-27.625 43.125 -27.625 43.125 -26.421875 41.2734375 C-24.625 40.125 -24.625 40.125 -19.625 40.125 C-20.12 32.7 -20.12 32.7 -20.625 25.125 C-20.955 25.455 -21.285 25.785 -21.625 26.125 C-23.78980797 26.2239294 -25.95793785 26.254711 -28.125 26.25 C-29.3109375 26.25257812 -30.496875 26.25515625 -31.71875 26.2578125 C-34.625 26.125 -34.625 26.125 -35.625 25.125 C-35.87656269 21.48600825 -35.81022226 17.83416327 -35.8125 14.1875 C-35.82474609 13.15947266 -35.83699219 12.13144531 -35.84960938 11.07226562 C-35.85154297 10.09064453 -35.85347656 9.10902344 -35.85546875 8.09765625 C-35.85957764 7.19281494 -35.86368652 6.28797363 -35.86791992 5.35571289 C-35.625 3.125 -35.625 3.125 -33.625 1.125 C-30.94903536 0.79933725 -28.37492472 0.60555174 -25.6875 0.5 C-24.87297363 0.46277832 -24.05844727 0.42555664 -23.21923828 0.38720703 C-15.48218968 0.07726803 -7.74248595 0.02154252 0 0 Z M29.375 32.125 C28.07866379 33.19145115 28.07866379 33.19145115 28.3125 35.6875 C28.333125 36.491875 28.35375 37.29625 28.375 38.125 C30.32103274 38.71570014 30.32103274 38.71570014 32.375 39.125 C33.67133621 38.05854885 33.67133621 38.05854885 33.4375 35.5625 C33.416875 34.758125 33.39625 33.95375 33.375 33.125 C31.42896726 32.53429986 31.42896726 32.53429986 29.375 32.125 Z " fill="#090602" transform="translate(43.625,7.875)"/>
<path d="M0 0 C0.93972656 -0.00128906 1.87945312 -0.00257812 2.84765625 -0.00390625 C3.83636719 -0.00003906 4.82507813 0.00382813 5.84375 0.0078125 C7.32681641 0.00201172 7.32681641 0.00201172 8.83984375 -0.00390625 C10.24943359 -0.00197266 10.24943359 -0.00197266 11.6875 0 C12.55568359 0.00112793 13.42386719 0.00225586 14.31835938 0.00341797 C16.34375 0.1328125 16.34375 0.1328125 17.34375 1.1328125 C17.43236992 3.9444463 17.45897355 6.73139505 17.44140625 9.54296875 C17.4399913 10.38500351 17.43857635 11.22703827 17.43711853 12.09458923 C17.43150263 14.79486585 17.41894748 17.49506078 17.40625 20.1953125 C17.40123705 22.02148318 17.39667379 23.84765516 17.39257812 25.67382812 C17.38152804 30.16018792 17.36425279 34.64648634 17.34375 39.1328125 C18.66375 39.1328125 19.98375 39.1328125 21.34375 39.1328125 C21.30894531 38.26398437 21.27414063 37.39515625 21.23828125 36.5 C20.95980206 24.64474309 20.95980206 24.64474309 24.34375 20.1328125 C30.18364591 14.30887259 35.40360401 13.83743621 43.28417969 13.8137207 C48.9448934 13.91320037 52.03576258 14.51018672 56.34375 18.1328125 C62.12233712 24.36760386 61.84037156 30.87395485 61.6875 38.9375 C61.42140313 43.96451334 60.10424498 47.67840432 56.34375 51.1328125 C51.45512601 55.12866863 47.97204573 55.76152965 41.90625 55.6328125 C40.81860352 55.65601562 40.81860352 55.65601562 39.70898438 55.6796875 C33.34967085 55.63397815 28.91739228 53.70645478 24.34375 49.1328125 C24.034375 49.9371875 23.725 50.7415625 23.40625 51.5703125 C22.34375 54.1328125 22.34375 54.1328125 21.34375 55.1328125 C18.97724818 55.27097596 16.64201115 55.34590858 14.2734375 55.37109375 C13.55898468 55.3791655 12.84453186 55.38723724 12.10842896 55.39555359 C10.59021442 55.40941455 9.07196845 55.42012767 7.55371094 55.42797852 C5.2487297 55.44508994 2.9452213 55.48894103 0.640625 55.53320312 C-0.83592697 55.54333902 -2.31249113 55.55185231 -3.7890625 55.55859375 C-4.47163116 55.57610184 -5.15419983 55.59360992 -5.85745239 55.61164856 C-11.91401812 55.58467623 -15.86032894 53.50473674 -20.43359375 49.625 C-23.96214656 44.70641123 -24.11435044 39.87257081 -24.15625 34.0078125 C-24.16261475 33.23163574 -24.16897949 32.45545898 -24.17553711 31.65576172 C-24.06756472 26.78292076 -23.31142393 23.35434803 -20.65625 19.1328125 C-16.78155269 15.63613444 -14.16719738 14.08390724 -9.03125 13.5703125 C-8.21398437 13.48652344 -7.39671875 13.40273438 -6.5546875 13.31640625 C-5.92820313 13.25582031 -5.30171875 13.19523437 -4.65625 13.1328125 C-4.98625 12.8028125 -5.31625 12.4728125 -5.65625 12.1328125 C-5.75476171 10.30165367 -5.78597629 8.46661317 -5.78125 6.6328125 C-5.78382813 5.6325 -5.78640625 4.6321875 -5.7890625 3.6015625 C-5.55946725 -0.66620794 -3.81179443 0.00495222 0 0 Z M-4.65625 30.1328125 C-6.07202477 31.31705576 -6.07202477 31.31705576 -5.71875 34.6953125 C-5.698125 35.8296875 -5.6775 36.9640625 -5.65625 38.1328125 C-4.66625 38.1328125 -3.67625 38.1328125 -2.65625 38.1328125 C-2.32625 37.8028125 -1.99625 37.4728125 -1.65625 37.1328125 C-1.94355055 34.79336514 -2.27561779 32.4588982 -2.65625 30.1328125 C-3.31625 30.1328125 -3.97625 30.1328125 -4.65625 30.1328125 Z M40.34375 31.1328125 C39.04741379 32.19926365 39.04741379 32.19926365 39.28125 34.6953125 C39.301875 35.4996875 39.3225 36.3040625 39.34375 37.1328125 C41.28978274 37.72351264 41.28978274 37.72351264 43.34375 38.1328125 C44.64008621 37.06636135 44.64008621 37.06636135 44.40625 34.5703125 C44.385625 33.7659375 44.365 32.9615625 44.34375 32.1328125 C42.39771726 31.54211236 42.39771726 31.54211236 40.34375 31.1328125 Z " fill="#F99C33" transform="translate(145.65625,8.8671875)"/>
<path d="M0 0 C5.94 0 11.88 0 18 0 C18 12.87 18 25.74 18 39 C19.98 39 21.96 39 24 39 C24 42.63 24 46.26 24 50 C18.39 50 12.78 50 7 50 C7 49.34 7 48.68 7 48 C6.175 48.495 5.35 48.99 4.5 49.5 C-0.34758882 51.57753807 -4.25716455 52.07718628 -9.1484375 50.15625 C-13.50305222 47.7604025 -16.42501333 45.04525993 -18.37109375 40.4375 C-20.10918678 33.70104004 -20.39057919 26.51208519 -16.8125 20.375 C-14.54315534 17.37870649 -12.60002524 15.30910009 -9 14 C-3.94625907 13.43744855 0.40472829 13.62824686 5 16 C5 13.69 5 11.38 5 9 C3.35 9 1.7 9 0 9 C0 6.03 0 3.06 0 0 Z M-2 28 C-3.41577477 29.18424326 -3.41577477 29.18424326 -3.0625 32.5625 C-3.041875 33.696875 -3.02125 34.83125 -3 36 C-2.01 36 -1.02 36 0 36 C0.33 35.67 0.66 35.34 1 35 C0.71269945 32.66055264 0.38063221 30.3260857 0 28 C-0.66 28 -1.32 28 -2 28 Z " fill="#FA9F38" transform="translate(143,11)"/>
<path d="M0 0 C0 6.93 0 13.86 0 21 C-3.3 21 -6.6 21 -10 21 C-10 18.03 -10 15.06 -10 12 C-11.98 12 -13.96 12 -16 12 C-15.9278125 13.09957031 -15.855625 14.19914062 -15.78125 15.33203125 C-15.25836933 23.56483868 -14.83954979 31.74572826 -15 40 C-12.36 40 -9.72 40 -7 40 C-7 43.63 -7 47.26 -7 51 C-16.57 51 -26.14 51 -36 51 C-36 47.7 -36 44.4 -36 41 C-32.535 40.505 -32.535 40.505 -29 40 C-28.67 30.76 -28.34 21.52 -28 12 C-29.98 12 -31.96 12 -34 12 C-34 14.97 -34 17.94 -34 21 C-37.63 21 -41.26 21 -45 21 C-45 14.73 -45 8.46 -45 2 C-40.84169806 1.71072682 -36.68338763 1.42454438 -32.52441406 1.14550781 C-31.1164211 1.05019161 -29.7085372 0.9532472 -28.30078125 0.85449219 C-18.8385232 0.19213412 -9.49148851 -0.0992574 0 0 Z " fill="#FAA341" transform="translate(55,10)"/>
<path d="M0 0 C4.6650622 2.61974575 8.0345311 5.9288784 9.59375 11.11328125 C10.64226697 18.32183544 9.85442792 25.07328614 5.59375 31.11328125 C1.52494613 35.28967368 -2.66329942 36.45548444 -8.40625 36.73828125 C-14.16503939 36.48346756 -18.15499078 35.02273068 -22.40625 31.11328125 C-26.92732235 25.13379847 -27.11760921 18.38151666 -26.40625 11.11328125 C-24.89131171 5.93161333 -21.45409574 2.60656775 -16.8125 0 C-11.3274517 -2.02127592 -5.4850483 -2.02127592 0 0 Z M-9.40625 14.11328125 C-10.70258621 15.1797324 -10.70258621 15.1797324 -10.46875 17.67578125 C-10.448125 18.48015625 -10.4275 19.28453125 -10.40625 20.11328125 C-8.46021726 20.70398139 -8.46021726 20.70398139 -6.40625 21.11328125 C-5.10991379 20.0468301 -5.10991379 20.0468301 -5.34375 17.55078125 C-5.364375 16.74640625 -5.385 15.94203125 -5.40625 15.11328125 C-7.35228274 14.52258111 -7.35228274 14.52258111 -9.40625 14.11328125 Z " fill="#F99C33" transform="translate(82.40625,25.88671875)"/>
<path d="M0 0 C0.93972656 -0.00128906 1.87945312 -0.00257812 2.84765625 -0.00390625 C3.83636719 -0.00003906 4.82507813 0.00382813 5.84375 0.0078125 C7.32681641 0.00201172 7.32681641 0.00201172 8.83984375 -0.00390625 C10.24943359 -0.00197266 10.24943359 -0.00197266 11.6875 0 C12.55568359 0.00112793 13.42386719 0.00225586 14.31835938 0.00341797 C16.34375 0.1328125 16.34375 0.1328125 17.34375 1.1328125 C17.43236992 3.9444463 17.45897355 6.73139505 17.44140625 9.54296875 C17.4399913 10.38500351 17.43857635 11.22703827 17.43711853 12.09458923 C17.43150263 14.79486585 17.41894748 17.49506078 17.40625 20.1953125 C17.40123705 22.02148318 17.39667379 23.84765516 17.39257812 25.67382812 C17.38152804 30.16018792 17.36425279 34.64648634 17.34375 39.1328125 C18.66375 39.1328125 19.98375 39.1328125 21.34375 39.1328125 C21.30894531 38.26398437 21.27414063 37.39515625 21.23828125 36.5 C20.95980206 24.64474309 20.95980206 24.64474309 24.34375 20.1328125 C30.18364591 14.30887259 35.40360401 13.83743621 43.28417969 13.8137207 C48.9448934 13.91320037 52.03576258 14.51018672 56.34375 18.1328125 C62.12233712 24.36760386 61.84037156 30.87395485 61.6875 38.9375 C61.42140313 43.96451334 60.10424498 47.67840432 56.34375 51.1328125 C51.45512601 55.12866863 47.97204573 55.76152965 41.90625 55.6328125 C40.81860352 55.65601562 40.81860352 55.65601562 39.70898438 55.6796875 C33.34967085 55.63397815 28.91739228 53.70645478 24.34375 49.1328125 C24.034375 49.9371875 23.725 50.7415625 23.40625 51.5703125 C22.34375 54.1328125 22.34375 54.1328125 21.34375 55.1328125 C18.97724818 55.27097596 16.64201115 55.34590858 14.2734375 55.37109375 C13.55898468 55.3791655 12.84453186 55.38723724 12.10842896 55.39555359 C10.59021442 55.40941455 9.07196845 55.42012767 7.55371094 55.42797852 C5.2487297 55.44508994 2.9452213 55.48894103 0.640625 55.53320312 C-0.83592697 55.54333902 -2.31249113 55.55185231 -3.7890625 55.55859375 C-4.47163116 55.57610184 -5.15419983 55.59360992 -5.85745239 55.61164856 C-11.91401812 55.58467623 -15.86032894 53.50473674 -20.43359375 49.625 C-23.96214656 44.70641123 -24.11435044 39.87257081 -24.15625 34.0078125 C-24.16261475 33.23163574 -24.16897949 32.45545898 -24.17553711 31.65576172 C-24.06756472 26.78292076 -23.31142393 23.35434803 -20.65625 19.1328125 C-16.78155269 15.63613444 -14.16719738 14.08390724 -9.03125 13.5703125 C-8.21398437 13.48652344 -7.39671875 13.40273438 -6.5546875 13.31640625 C-5.92820313 13.25582031 -5.30171875 13.19523437 -4.65625 13.1328125 C-4.98625 12.8028125 -5.31625 12.4728125 -5.65625 12.1328125 C-5.75476171 10.30165367 -5.78597629 8.46661317 -5.78125 6.6328125 C-5.78382813 5.6325 -5.78640625 4.6321875 -5.7890625 3.6015625 C-5.55946725 -0.66620794 -3.81179443 0.00495222 0 0 Z M-2.65625 2.1328125 C-2.65625 5.1028125 -2.65625 8.0728125 -2.65625 11.1328125 C-1.00625 11.1328125 0.64375 11.1328125 2.34375 11.1328125 C2.34375 13.4428125 2.34375 15.7528125 2.34375 18.1328125 C1.704375 17.8028125 1.065 17.4728125 0.40625 17.1328125 C-5.05441265 15.34973898 -9.73677184 15.22739827 -14.96875 17.6953125 C-19.2533038 21.58130315 -21.32649289 24.49475564 -22.0390625 30.1953125 C-22.27028817 36.85461179 -22.08159986 42.8621711 -17.65625 48.1328125 C-14.03558612 51.40102237 -10.45851843 53.40627142 -5.53125 53.6328125 C-1.59983061 53.12553258 0.96461974 52.16029066 4.34375 50.1328125 C4.34375 50.7928125 4.34375 51.4528125 4.34375 52.1328125 C9.95375 52.1328125 15.56375 52.1328125 21.34375 52.1328125 C21.34375 48.5028125 21.34375 44.8728125 21.34375 41.1328125 C19.36375 41.1328125 17.38375 41.1328125 15.34375 41.1328125 C15.34375 28.2628125 15.34375 15.3928125 15.34375 2.1328125 C9.40375 2.1328125 3.46375 2.1328125 -2.65625 2.1328125 Z M25.96875 22.63671875 C22.48019911 27.66362367 22.64956804 33.24073151 23.34375 39.1328125 C24.26378079 43.37910847 25.61195426 46.41978076 28.78125 49.5078125 C35.00463672 53.45435042 39.97756056 54.02053277 47.34375 53.1328125 C52.38837754 51.45669432 55.4124383 48.71003687 57.84375 44.0078125 C60.05144263 38.05793235 60.73780941 31.82151836 58.4609375 25.796875 C55.86515399 21.17259842 52.54182524 17.65443089 47.34375 16.1328125 C38.62031954 14.87115933 32.0148222 16.02382728 25.96875 22.63671875 Z " fill="#070401" transform="translate(145.65625,8.8671875)"/>
<path d="M0 0 C0.02688151 1.64574566 0.04634123 3.29161413 0.0625 4.9375 C0.07410156 5.85402344 0.08570312 6.77054688 0.09765625 7.71484375 C0 10 0 10 -1 11 C-2.55948542 11.15686249 -4.12542668 11.25076639 -5.69140625 11.31640625 C-6.63564453 11.35830078 -7.57988281 11.40019531 -8.55273438 11.44335938 C-10.04256836 11.50233398 -10.04256836 11.50233398 -11.5625 11.5625 C-12.55958984 11.60568359 -13.55667969 11.64886719 -14.58398438 11.69335938 C-17.05581111 11.79980167 -19.5278866 11.90043759 -22 12 C-22.33 8.7 -22.66 5.4 -23 2 C-15.18749745 0.35526262 -7.97571761 -0.2505461 0 0 Z " fill="#F19732" transform="translate(119,37)"/>
<path d="M0 0 C2.4375 0.875 2.4375 0.875 4.4375 3.875 C4.8891129 10.19758065 4.8891129 10.19758065 2.4375 13.875 C-0.5625 14.25 -0.5625 14.25 -3.5625 13.875 C-6.09936376 10.06970436 -6.15605135 7.33590938 -5.5625 2.875 C-3.92978469 0.0392313 -3.26331106 -0.15918591 0 0 Z M-1.5625 2.875 C-2.97827477 4.05924326 -2.97827477 4.05924326 -2.625 7.4375 C-2.604375 8.571875 -2.58375 9.70625 -2.5625 10.875 C-1.5725 10.875 -0.5825 10.875 0.4375 10.875 C0.7675 10.545 1.0975 10.215 1.4375 9.875 C1.15019945 7.53555264 0.81813221 5.2010857 0.4375 2.875 C-0.2225 2.875 -0.8825 2.875 -1.5625 2.875 Z " fill="#150D04" transform="translate(142.5625,36.125)"/>
<path d="M0 0 C1.8125 1.0625 1.8125 1.0625 3 3 C3.6384 8.9584 3.6384 8.9584 1.8125 11.9375 C-0.68780874 13.40319823 -2.15130656 13.49852135 -5 13 C-7.5348994 10.72733157 -7.96041822 9.32325124 -8.375 5.9375 C-8 3 -8 3 -6.8125 1.125 C-4.34492892 -0.40659584 -2.85480169 -0.42822025 0 0 Z M-4 3 C-5.29633621 4.06645115 -5.29633621 4.06645115 -5.0625 6.5625 C-5.041875 7.366875 -5.02125 8.17125 -5 9 C-3.05396726 9.59070014 -3.05396726 9.59070014 -1 10 C0.29633621 8.93354885 0.29633621 8.93354885 0.0625 6.4375 C0.041875 5.633125 0.02125 4.82875 0 4 C-1.94603274 3.40929986 -1.94603274 3.40929986 -4 3 Z " fill="#110A03" transform="translate(190,37)"/>
<path d="M0 0 C1.8125 1.0625 1.8125 1.0625 3 3 C3.6384 8.9584 3.6384 8.9584 1.8125 11.9375 C-0.68780874 13.40319823 -2.15130656 13.49852135 -5 13 C-7.5348994 10.72733157 -7.96041822 9.32325124 -8.375 5.9375 C-8 3 -8 3 -6.8125 1.125 C-4.34492892 -0.40659584 -2.85480169 -0.42822025 0 0 Z M-4 3 C-5.29633621 4.06645115 -5.29633621 4.06645115 -5.0625 6.5625 C-5.041875 7.366875 -5.02125 8.17125 -5 9 C-3.05396726 9.59070014 -3.05396726 9.59070014 -1 10 C0.29633621 8.93354885 0.29633621 8.93354885 0.0625 6.4375 C0.041875 5.633125 0.02125 4.82875 0 4 C-1.94603274 3.40929986 -1.94603274 3.40929986 -4 3 Z " fill="#110A03" transform="translate(77,37)"/>
</svg>
